<svg id="Layer_1" data-name="Layer 1" xmlns="http://www.w3.org/2000/svg" viewBox="0 0 122.88 88.42"><defs><style>.cls-1{fill-rule:evenodd;}</style></defs><title>lotus</title><path class="cls-1" d="M0,58.91c7.35,5.94,16.21,9.52,28.93,8.31C25.76,70.3,25.27,73.11,25,77.53c8.63,1.67,17,1.59,24.72-2.33A21.7,21.7,0,0,0,61.44,88.42,21.65,21.65,0,0,0,73.14,75.2c7.74,3.92,16.1,4,24.73,2.33-.26-4.42-.76-7.23-3.92-10.31,12.72,1.21,21.58-2.37,28.93-8.31l-14-2.47c-7.28,6.87-17.47,9.22-27.21,9.69a116.47,116.47,0,0,1-19.49-1l-.7-.08h-.08a117.69,117.69,0,0,1-19.48,1c-9.8-.48-20.14-2.81-27.56-9.64C9.94,57.15,5.19,58,0,58.91ZM61.53,0c20.17,16,20.17,41.8,0,57.75C41.11,44.31,41.11,13.44,61.53,0ZM28.28,11.06c-9.62,20.57,2.37,31.84,19,39.81a40.49,40.49,0,0,1-6.45-22,41.08,41.08,0,0,1,1.4-10.62,88,88,0,0,0-14-7.2Zm67.09-.29c7.77,18.66-3.64,32-20.62,40.74A39.6,39.6,0,0,0,82,28.88a38.08,38.08,0,0,0-1.4-10.2,86,86,0,0,1,14.73-7.91ZM113.6,24.35c1.83,37.37-27.94,37.67-45.47,36h0l1.75-.7c11-4.58,20.8-10.77,26.85-18.78a30.65,30.65,0,0,0,6.42-16.06,56.11,56.11,0,0,1,10.44-.47Zm-104.32,0c-1.84,37.45,29,37.53,46.4,35.9C44.38,55.88,33.5,50.64,26.7,43c-4.54-5.11-7.29-11.07-7.28-18.2a55.47,55.47,0,0,0-10.14-.43ZM61.14,59.67l.3,0,0-.17-.25.21Z"/></svg>