<?xml version="1.0" encoding="utf-8"?><svg version="1.1" id="Layer_1" xmlns="http://www.w3.org/2000/svg" xmlns:xlink="http://www.w3.org/1999/xlink" x="0px" y="0px" viewBox="0 0 94.31 122.88" style="enable-background:new 0 0 94.31 122.88" xml:space="preserve"><g><path d="M29.17,70.15c-0.66-0.48-0.81-1.41-0.33-2.07c0.48-0.66,1.41-0.81,2.07-0.33c2.04,1.48,4.16,2.53,6.14,3.2 c2.26,0.77,4.29,1.05,5.74,0.93c0.82-0.07,1.54,0.54,1.6,1.36c0.07,0.82-0.54,1.54-1.36,1.6c-1.82,0.16-4.28-0.17-6.95-1.08 C33.86,73,31.46,71.82,29.17,70.15L29.17,70.15z M69.05,82.01c2.58,8.92,0.48,13.91-4.01,17.13c-4.89-4.53-5.56-10.47-1.61-18.5 c-0.15-0.03-0.31-0.05-0.46-0.08c-6.13,4.77-11.87,6-17.58,2.18c0.22-1.1,0.6-2.08,1.13-2.94c-9.17,0.66-18.11,3.04-25.01,6.49 c-7.4,3.7-17.64,9.99-17.64,15.02c0,4.93,4.8,9.45,12.01,12.88c8.2,3.9,24.66,4.82,35.68,4.82c10.6,0,20.15-2.33,27.03-6.09 c6.53-3.57,10.56-8.39,10.56-13.6c0-4.78-3.4-9.23-9-12.69C75.7,86.33,72,83.59,69.05,82.01L69.05,82.01z M52.44,75.75 c2.66-0.74,6.04-0.93,10.11-0.58c-6.84-3.91-10.32-8.4-7.82-16.59c5.56,0.59,10.3,4.17,11.99,14.34 c2.79-7.92,7.3-13.22,13.75-12.93c1.31,6.31-0.34,11.4-9.7,16.52c5.06-0.01,9.27,0.43,12.11,2.54c1.77-1.1,3.27-2.32,4.47-3.63 c1.97-2.15,3.08-4.55,3.08-7.05c0-4.4-3.44-8.48-8.99-11.52c-5.91-3.23-14.12-5.23-23.23-5.23c-9.38,0-18.73,2.12-25.6,5.52 c-6.13,3.04-10.18,7.01-10.18,11.23c0,1.7,0.67,3.37,1.86,4.95c1.38,1.82,3.45,3.52,6.03,5.04c0.15,0.09,0.28,0.19,0.4,0.31 c6.52-1.85,13.74-2.92,20.87-2.92C51.86,75.74,52.15,75.74,52.44,75.75L52.44,75.75z M85.38,82.04c0.47,0.93,0.83,2.01,1.07,3.26 c-0.3,0.15-0.6,0.28-0.9,0.41c4.73,3.82,7.49,8.5,7.49,13.61c0,6.73-4.81,12.73-12.59,16.99c-7.43,4.06-17.64,6.58-28.88,6.58 c-11.57,0-28.64-1.06-37.33-5.2C5.69,113.61,0,107.91,0,101.3c0-6.65,11.1-14.13,19.79-18.47c1.94-0.97,4.03-1.86,6.23-2.66 c-1.94-1.39-3.57-2.9-4.8-4.53c-1.71-2.25-2.67-4.7-2.67-7.28c0-5.85,4.92-11.01,12.35-14.7c1.49-0.74,3.08-1.42,4.75-2.03 c-2.79-1.12-5.26-2.45-7.2-3.93c-3.04-2.33-4.86-5.09-4.86-8.2c0-4.88,4.63-9.31,11.33-12.51c1.58-0.76,3.29-1.45,5.08-2.07 c-0.65-0.45-1.25-0.93-1.78-1.44c-1.53-1.48-2.53-3.24-2.86-5.23c-0.67-4.02,1.54-8.04,5.65-11.27c3.8-2.98,9.3-5.36,15.6-6.41l0,0 c6.3-1.05,12.27-0.59,16.83,1c4.94,1.72,8.34,4.8,9.01,8.82c0.54,3.25-0.79,6.49-3.5,9.32c-1.47,1.54-3.36,2.97-5.57,4.21 c2.12,0.69,4.07,1.52,5.81,2.47c5.63,3.08,9.12,7.46,9.12,12.4c0,2.85-1.42,5.68-3.72,8.18c-1.53,1.66-3.46,3.18-5.63,4.47 c1.53,0.61,2.98,1.28,4.32,2.02c6.81,3.73,11.02,8.99,11.02,14.91c0,3.5-1.48,6.78-4.11,9.66C88.88,79.47,87.25,80.82,85.38,82.04 L85.38,82.04z M41.96,49.71c5.12-1.26,10.69-1.97,16.25-1.97c5.58,0,10.88,0.72,15.59,1.99c0.05-0.02,0.09-0.05,0.14-0.07 c3.09-1.33,5.86-3.21,7.81-5.31c1.67-1.81,2.69-3.74,2.69-5.56c0-3.42-2.71-6.61-7.09-9.01c-2.71-1.48-6.02-2.64-9.73-3.36 c-0.4,0.05-0.8-0.02-1.15-0.21c-2.45-0.41-5.05-0.62-7.75-0.62c-7.62,0-15.91,1.93-22.13,4.9c-5.39,2.57-9.12,5.81-9.12,9.01 c0,1.79,1.25,3.53,3.33,5.12c2.63,2.01,6.47,3.71,10.87,4.97C41.77,49.63,41.87,49.67,41.96,49.71L41.96,49.71z M45.43,23.35 c4.34-1.04,8.92-1.63,13.29-1.63c3.01,0,5.92,0.26,8.67,0.73c3.71-1.39,6.76-3.28,8.78-5.4c1.87-1.95,2.81-4.05,2.48-6.02 c-0.42-2.52-2.86-4.55-6.46-5.81c-3.95-1.38-9.2-1.77-14.81-0.85c-0.08,0.02-0.16,0.03-0.24,0.04c-5.6,0.95-10.43,3.03-13.73,5.62 c-3,2.36-4.65,5.08-4.23,7.59c0.19,1.14,0.8,2.18,1.74,3.1c1.08,1.05,2.6,1.93,4.44,2.61C45.38,23.32,45.4,23.33,45.43,23.35 L45.43,23.35z M20.13,94.26c0.38-0.73,1.28-1,2-0.62c0.73,0.38,1,1.28,0.62,2c-0.77,1.46-0.98,3.33-0.82,5.15 c0.19,2.09,0.86,4.05,1.76,5.22c0.5,0.65,0.37,1.58-0.28,2.08c-0.65,0.5-1.58,0.37-2.08-0.28c-1.21-1.58-2.12-4.12-2.35-6.76 C18.78,98.72,19.08,96.27,20.13,94.26L20.13,94.26z"/></g></svg>